Coordinates
version=1
nRows=8
nColumns=36
inDegrees=yes

Units are S.I. units (second, meters, Newtons, ...)
If the header above contains a line with 'inDegrees', this indicates whether rotational values are in degrees (yes) or radians (no).

endheader
time	pelvis_tilt	pelvis_list	pelvis_rotation	pelvis_tx	pelvis_ty	pelvis_tz	hip_flexion_r	hip_adduction_r	hip_rotation_r	knee_angle_r	knee_angle_r_beta	ankle_angle_r	subtalar_angle_r	mtp_angle_r	hip_flexion_l	hip_adduction_l	hip_rotation_l	knee_angle_l	knee_angle_l_beta	ankle_angle_l	subtalar_angle_l	mtp_angle_l	lumbar_extension	lumbar_bending	lumbar_rotation	arm_flex_r	arm_add_r	arm_rot_r	elbow_flex_r	pro_sup_r	arm_flex_l	arm_add_l	arm_rot_l	elbow_flex_l	pro_sup_l
      0.00000000	     -5.52791174	     -0.34428206	     -5.20940295	     -0.34604473	      1.20998510	     -0.11534682	      6.34684169	     -2.01602058	      2.20624675	      7.72472153	      0.13482182	      2.08084369	    -21.37332005	     -5.98613915	      2.96965545	     -1.69745688	      2.28524431	      2.97471783	      0.05191862	     13.56792041	     -2.01075565	     -5.98613915	     -5.07657522	     -0.02937315	     -0.80312648	      7.06648819	     -7.14156513	     23.96889227	     25.36532299	     75.17118730	      1.16414521	     -7.28770736	     16.21374939	     27.91766542	     69.57314696
      0.01666670	     -7.20594769	     -1.62123631	     -4.50710722	     -0.34519211	      1.20472175	     -0.11637690	      8.04038974	     -0.45224740	      2.04319466	      8.68879428	      0.15164807	      6.31983870	    -18.58237076	     -6.21871326	      5.01510751	     -2.63741291	      4.32519592	      2.89192542	      0.05047362	     13.96730061	     -1.48129970	     -6.21871326	     -3.01188171	      1.96156696	     -1.74968130	      6.53610562	     -6.82511900	     21.51676881	     25.67715479	     75.16080262	      0.52667007	     -6.18962836	     13.11773552	     28.51872125	     69.23302709
      0.03333330	     -7.22006188	     -1.48478474	     -4.46789545	     -0.33913902	      1.20402111	     -0.11268522	      7.29845080	     -0.61863442	      2.09385716	      7.90491789	      0.13796684	      7.38270100	    -18.66902586	     -6.22427571	      4.70129075	     -2.59699660	      4.45829843	      2.71267981	      0.04734519	     14.62516121	     -1.37187055	     -6.22427571	     -2.31013076	      1.67146511	     -1.92233453	      6.33983287	     -6.48664268	     21.25189542	     26.01142682	     75.26082055	      0.08907492	     -6.38474189	     12.87186149	     28.61974607	     69.28861916
      0.05000000	     -6.24223036	     -1.82426585	     -3.77032706	     -0.33992452	      1.20493839	     -0.11298132	      5.59466034	     -0.38069074	      0.59602878	      7.12211915	      0.12430443	      8.28365296	    -16.78888352	     -6.84927346	      3.03150834	     -2.89210888	      4.71432245	      1.82763872	      0.03189831	     14.86635666	     -0.05087611	     -6.84927346	     -3.47451752	      1.96748502	     -2.67482974	      4.79615383	     -5.55143369	     10.66211611	     29.72441382	     88.84243006	     -1.14775497	     -6.02233154	      6.56576955	     31.06701447	     79.10047894
      0.06666670	     -5.88147620	     -2.12498294	     -3.41094052	     -0.33997461	      1.20502141	     -0.10733735	      4.71366573	      0.14421739	      0.34125389	      6.50492749	      0.11353240	      8.81560639	    -16.57665181	     -6.86690455	      2.38493590	     -3.32830806	      4.93299863	      1.41114835	      0.02462919	     15.23138684	      0.60094449	     -6.86690455	     -3.48829218	      2.13545353	     -3.10000070	      4.26098906	     -5.65923501	     10.80205874	     30.85937576	     88.78962436	     -1.94755234	     -6.32682545	      6.52874980	     31.48264594	     79.18031402
      0.08333330	     -5.56327022	     -2.33426734	     -2.91540384	     -0.34046910	      1.20504986	     -0.10760528	      4.06429759	      0.51278860	     -0.18431891	      6.08306276	      0.10616947	      9.44518614	    -16.08480084	     -6.98515458	      1.95339208	     -3.65404473	      5.25692793	      1.21885030	      0.02127295	     15.31127835	      0.93902017	     -6.98515458	     -3.60546670	      2.19547655	     -3.26809791	      3.66736296	     -5.88743115	     11.37411423	     31.97501857	     85.96146737	     -2.14003953	     -6.54118542	      6.75166866	     32.36054249	     77.51334980
      0.10000000	     -5.40451913	     -2.45912865	     -2.48989101	     -0.34067963	      1.20533893	     -0.10791128	      3.66196241	      0.76715746	     -0.62624781	      5.62652404	      0.09820137	      9.77567911	    -15.86285035	     -7.15067891	      1.77489345	     -3.89514402	      5.32084576	      1.13777722	      0.01985796	     15.56348564	      1.65097403	     -7.15067891	     -3.51328832	      2.20057847	     -3.48203246	      3.31659447	     -6.18469094	     12.97638243	     32.65933713	     80.30847194	     -2.13388630	     -6.74824957	      7.53589478	     32.79270110	     74.38798715
      0.11666670	     -5.03385419	     -2.54837361	     -2.02762122	     -0.33453097	      1.20803976	     -0.10475601	      2.81537178	      1.06806708	     -0.64397090	      4.99945244	      0.08725691	      9.27926302	    -16.67242879	     -7.17020463	      1.23686121	     -4.13389288	      5.65441430	      1.00844021	      0.01760060	     15.56379060	      1.87439288	     -7.17020463	     -3.53656234	      2.08159435	     -3.92097734	      3.08398771	     -6.31806225	     14.71163931	     32.85171079	     81.55132855	     -2.50909129	     -6.97554496	      8.29491641	     33.18317769	     75.59188444
